# xmcd
#
# Track frame offsets: 
#        150
#        14543
#        29285
#        43318
#        58326
#        72398
#        87724
#        101551
#        116108
#        130777
#        145835
#        159720
#        173817
#        188769
#        204344
#        217939
#        232571
#        245278
#        259248
#        272468
#        287670
#        302386
#        316676
#        330660
#
# Disc length: 4577 seconds
#
# Revision: 0
# Processed by: cddbd v1.5.2PL0 Copyright (c) Steve Scherf et al.
# Submitted via: ExactAudioCopy v0.99pb4
#
DISCID=5611df18
DTITLE=Sol Hoopii and His Novelty Quartette - Classic Hawaiian Steel Gui
DTITLE=tar Performances 1933-34
DYEAR=2007
DGENRE=Hawaiian
TTITLE0=I Like You
TTITLE1=Drifting and Dreaming (Sweet Paradise)
TTITLE2=I Want Someone to Love Me
TTITLE3=King's Serenade
TTITLE4=King Kamehameha [take A]
TTITLE5=Kolo Pa
TTITLE6=Don't Stop Loving Me
TTITLE7=Akaka Falls
TTITLE8=My Little Grass Shack in Kealakekua, Hawaii
TTITLE9=Weave a Lei--Flower Lei
TTITLE10=An Orange Grove in California
TTITLE11=Aloha Beloved
TTITLE12=The Lei Vendor (The Flower Vendor Song)
TTITLE13=On Our Parting Day
TTITLE14=There's Nothing Else to Do in Ma-La-Ka-Mo-Ka-Lu
TTITLE15=My Hawaiian Queen
TTITLE16=Midnight's Near
TTITLE17=Hula Girl
TTITLE18=Hula Blues
TTITLE19=Under the Tropical Moon
TTITLE20=Ten Tiny Toes--One Baby Nose (That's All I'm Living For)
TTITLE21=Oh! Lady Be Good!
TTITLE22=King Kamehameha [take B]
TTITLE23=It's Hard to Say Good-Bye
EXTD=Sol Hoopii [Kolomona Ho`opi`i Ka`ai`ai - surname pronounced "ho-oh
EXTD=PEE-ee"] (1902/1953): steel guitar, vocals\nBob Nawahine (tracks
EXTD=1,2,4,6,7,9,10,12,18,21), Sol K. Bright (10), George Kainapau (4
EXTD=,8,13,15-17,19,20,22,23): vocals\nAll other personnel (guitar, uk
EXTD=ulele, bass, vocals) unknown.\nRecorded Los Angeles US-CA, 1933-1
EXTD=0-04 (1,2,4,6,7,10-12,18,21), 1933-11-11 (9), 1934-02-19 (3,8,13,
EXTD=14,16,24), 1934-02-22 (17,19,20,22), and 1934-04-17 (4,15,23).\nA
EXTD=ll tracks issued as Brunswick 6xxx and 55xxx 78s.\nCompilation prod
EXTD=uced by Michael Kieffer and Cary Ginell.\nTransfers from 78s, aud
EXTD=io restoration, and CD mastering by Michael Kieffer.\nPitch corre
EXTD=ction by Dan Levinson.\nCD: Origin Jazz Library OJL-3000 (2007-03
EXTD=20), UPC 784554300020.
EXTT0=(Andy Iona Long/Sam Koki)
EXTT1=(Gillespie/Van Alstyne/Schmidt/Curtis)
EXTT2=(Sol Hoopii/Decker)
EXTT3=(Charles E. King]\nAKA "Imi Au Ia Oe (I Search for Thee)".
EXTT4=(Johnny Noble)
EXTT5=(Emma Bush)
EXTT6=(Sol Hoopii)
EXTT7=(Helen Lindsay Parker)
EXTT8=(William O. Cogswell/Tommy Harrison/Johnny Noble)
EXTT9=(Sol K. Bright)
EXTT10=(Irving Berlin)
EXTT11=(Andy Iona Long/Canfield)
EXTT12=(Johnny Noble]\nAKA "Leis for Sale".
EXTT13=(Johnny Noble/Macario/Kinney)
EXTT14=(Friend/Mitchell)
EXTT15=(Johnny Noble)
EXTT16=(Sol Hoopii)
EXTT17=(Albert R. "Sonny" Cunha]\nAKA "Hapa Haole Hula Girl".
EXTT18=(Johnny Noble/Albert R. "Sonny" Cunha)
EXTT19=(Johnny Noble)
EXTT20=(Jack Little/Dave Oppenheim/Ira Schuster)
EXTT21=(George Gershwin/Ira Gershwin)
EXTT22=(Johnny Noble)
EXTT23=(Sol Hoopii/K. Hoopii)
PLAYORDER=
